<svg width="286" height="66" viewBox="0 0 286 66" fill="none" xmlns="http://www.w3.org/2000/svg">
<g clip-path="url(#clip0_1_18)">
<path d="M32.7 65L0 -0.400002H65.4L32.7 65Z" fill="white"/>
<path d="M77.116 56.749L97.943 10.759H104.448L125.34 56.749H118.442L99.849 14.438H102.477L83.883 56.749H77.116ZM85.986 45.251L87.76 39.995H113.646L115.551 45.251H85.986ZM131.242 56.749V21.928H137.287V31.389L136.695 29.024C137.659 26.614 139.28 24.775 141.557 23.505C143.834 22.234 146.638 21.599 149.967 21.599V27.71C149.704 27.666 149.452 27.644 149.211 27.644C148.97 27.644 148.74 27.644 148.521 27.644C145.148 27.644 142.477 28.651 140.506 30.666C138.535 32.68 137.549 35.593 137.549 39.404V56.749H131.242ZM172.592 57.143C169.044 57.143 165.879 56.376 163.098 54.844C160.317 53.31 158.138 51.208 156.561 48.536C154.984 45.864 154.196 42.798 154.196 39.338C154.196 35.878 154.984 32.812 156.561 30.14C158.138 27.468 160.317 25.377 163.098 23.866C165.879 22.354 169.044 21.599 172.592 21.599C175.745 21.599 178.559 22.223 181.034 23.472C183.509 24.72 185.425 26.57 186.783 29.024L181.987 32.111C180.848 30.403 179.458 29.144 177.815 28.334C176.172 27.523 174.409 27.118 172.526 27.118C170.249 27.118 168.212 27.621 166.416 28.629C164.62 29.636 163.196 31.049 162.145 32.867C161.094 34.685 160.569 36.842 160.569 39.338C160.569 41.834 161.094 44.003 162.145 45.843C163.196 47.682 164.62 49.105 166.416 50.113C168.212 51.12 170.249 51.624 172.526 51.624C174.409 51.624 176.172 51.219 177.815 50.409C179.458 49.598 180.848 48.339 181.987 46.631L186.783 49.653C185.425 52.062 183.509 53.913 181.034 55.205C178.559 56.497 175.745 57.143 172.592 57.143ZM194.495 56.749V8H200.803V56.749H194.495ZM228.333 57.143C224.61 57.143 221.336 56.376 218.511 54.844C215.686 53.31 213.496 51.208 211.941 48.536C210.386 45.864 209.609 42.798 209.609 39.338C209.609 35.878 210.364 32.812 211.875 30.14C213.386 27.468 215.467 25.377 218.117 23.866C220.767 22.354 223.756 21.599 227.085 21.599C230.458 21.599 233.436 22.343 236.02 23.833C238.605 25.322 240.63 27.414 242.097 30.108C243.564 32.801 244.298 35.944 244.298 39.536C244.298 39.798 244.287 40.105 244.266 40.455C244.244 40.805 244.211 41.134 244.167 41.441H214.536V36.908H240.882L238.32 38.484C238.363 36.25 237.903 34.258 236.94 32.506C235.977 30.754 234.652 29.385 232.965 28.399C231.279 27.413 229.319 26.921 227.085 26.921C224.895 26.921 222.946 27.413 221.238 28.399C219.529 29.385 218.193 30.765 217.23 32.539C216.267 34.312 215.785 36.338 215.785 38.616V39.667C215.785 41.988 216.321 44.058 217.394 45.876C218.467 47.693 219.968 49.105 221.895 50.113C223.822 51.12 226.034 51.624 228.53 51.624C230.589 51.624 232.461 51.273 234.148 50.573C235.834 49.872 237.312 48.821 238.583 47.42L242.065 51.493C240.488 53.332 238.527 54.734 236.184 55.698C233.841 56.661 231.224 57.143 228.333 57.143ZM253.03 56.749V21.928H259.075V31.323L258.089 28.826C259.228 26.548 260.98 24.775 263.345 23.505C265.71 22.234 268.47 21.599 271.623 21.599C274.47 21.599 276.978 22.146 279.146 23.242C281.314 24.336 283.011 26.001 284.238 28.235C285.464 30.469 286.077 33.294 286.077 36.71V56.749H279.77V37.433C279.77 34.06 278.949 31.52 277.306 29.812C275.664 28.104 273.354 27.25 270.375 27.25C268.141 27.25 266.192 27.688 264.528 28.564C262.863 29.44 261.582 30.732 260.684 32.44C259.787 34.148 259.338 36.272 259.338 38.813V56.749H253.03Z" fill="white"/>
</g>
<defs>
<clipPath id="clip0_1_18">
<rect width="285.761" height="65.145" fill="white"/>
</clipPath>
</defs>
</svg>
